<?xml version="1.0" encoding="UTF-8" standalone="no"?>
<!-- Created with Inkscape (http://www.inkscape.org/) -->
<?xml-stylesheet type="text/css" href="icons.css" ?>
<svg xmlns:rdf="http://www.w3.org/1999/02/22-rdf-syntax-ns#" xmlns="http://www.w3.org/2000/svg" version="1.1" xmlns:cc="http://creativecommons.org/ns#" xmlns:dc="http://purl.org/dc/elements/1.1/" viewBox="0 0 780.41 627.35">
 <metadata>
  <rdf:RDF>
   <cc:Work rdf:about="">
    <dc:format>image/svg+xml</dc:format>
    <dc:type rdf:resource="http://purl.org/dc/dcmitype/StillImage"/>
    <dc:title/>
   </cc:Work>
  </rdf:RDF>
 </metadata>
 <g transform="translate(115.92171,-272.36219)">
  <g class="color1" fill="#e8d050" transform="translate(202.85714,-68.571429)">
   <path d="m700,775.22c0,118.35-76.112,214.29-170,214.29s-170-95.939-170-214.29v-0.00001l170,0.00001z" transform="matrix(-1.0936564,0,0,-1.6286132,855.35206,2162.2447)"/>
   <path d="m548.57,468.08c0,68.641-55.645,124.29-124.29,124.29-68.641,0-124.29-55.645-124.29-124.29,0-68.641,55.645-124.29,124.29-124.29,68.641,0,124.29,55.645,124.29,124.29z" transform="translate(-148.57154,-2.8571431)"/>
  </g>
  <g class="color2" fill="#fcfc80" transform="translate(-205.71429,-68.571429)">
   <path d="m700,775.22c0,118.35-76.112,214.29-170,214.29s-170-95.939-170-214.29v-0.00001l170,0.00001z" transform="matrix(-1.0936564,0,0,-1.6286132,855.35206,2162.2447)"/>
   <path d="m548.57,468.08c0,68.641-55.645,124.29-124.29,124.29-68.641,0-124.29-55.645-124.29-124.29,0-68.641,55.645-124.29,124.29-124.29,68.641,0,124.29,55.645,124.29,124.29z" transform="translate(-148.57154,-2.8571431)"/>
  </g>
  <g class="color3">
  <path d="m700,775.22c0,118.35-76.112,214.29-170,214.29s-170-95.939-170-214.29v-0.00001l170,0.00001z" transform="matrix(-1.0936564,0,0,-1.6286132,855.35206,2162.2447)" fill="#602400"/>
  <path d="m548.57,468.08c0,68.641-55.645,124.29-124.29,124.29-68.641,0-124.29-55.645-124.29-124.29,0-68.641,55.645-124.29,124.29-124.29,68.641,0,124.29,55.645,124.29,124.29z" transform="translate(-148.57154,-2.8571431)" fill="#602400"/>
  </g>
 </g>
</svg>
