<?xml version="1.0" encoding="UTF-8" standalone="no"?>
<svg
   xmlns:dc="http://purl.org/dc/elements/1.1/"
   xmlns:cc="http://creativecommons.org/ns#"
   xmlns:rdf="http://www.w3.org/1999/02/22-rdf-syntax-ns#"
   xmlns:svg="http://www.w3.org/2000/svg"
   xmlns="http://www.w3.org/2000/svg"
   xmlns:sodipodi="http://sodipodi.sourceforge.net/DTD/sodipodi-0.dtd"
   xmlns:inkscape="http://www.inkscape.org/namespaces/inkscape"
   width="476.99966"
   height="452.99969"
   viewBox="0 0 476.99957 453"
   id="svg2"
   version="1.1"
   inkscape:version="0.48.3.1 r9886"
   sodipodi:docname="kiranalogo.svg">
  <metadata
     id="metadata9">
    <rdf:RDF>
      <cc:Work
         rdf:about="">
        <dc:format>image/svg+xml</dc:format>
        <dc:type
           rdf:resource="http://purl.org/dc/dcmitype/StillImage" />
      </cc:Work>
    </rdf:RDF>
  </metadata>
  <defs
     id="defs7" />
  <sodipodi:namedview
     pagecolor="#ffffff"
     bordercolor="#666666"
     borderopacity="1"
     objecttolerance="10"
     gridtolerance="10"
     guidetolerance="10"
     inkscape:pageopacity="0"
     inkscape:pageshadow="2"
     inkscape:window-width="1024"
     inkscape:window-height="551"
     id="namedview5"
     showgrid="false"
     fit-margin-top="0"
     fit-margin-left="0"
     fit-margin-right="0"
     fit-margin-bottom="0"
     inkscape:zoom="0.52097165"
     inkscape:cx="207.7809"
     inkscape:cy="213.56236"
     inkscape:window-x="0"
     inkscape:window-y="29"
     inkscape:window-maximized="1"
     inkscape:current-layer="svg2" />
  <path
     id="Selection #1"
     d="m 242.4927,0.501059 c 0,0 0,141.000011 0,141.000011 0,0 0,43 0,43 0,0 1,23 1,23 0,0 6.58,-27 6.58,-27 0,0 11.54,-43 11.54,-43 0,0 21.73,-81.000011 21.73,-81.000011 0,0 13.15,-49 13.15,-49 0,0 7,1.0000001 7,1.0000001 0,0 -12.12,46.9999999 -12.12,46.9999999 0,0 -25.3,95.000011 -25.3,95.000011 0,0 -10.46,39 -10.46,39 -1.63,6.17 -4.64,13.67 -4.12,20 0,0 10.58,-20 10.58,-20 0,0 20.82,-36 20.82,-36 0,0 38.61,-67.000008 38.61,-67.000008 0,0 31.99,-56.000003 31.99,-56.000003 2.78,0.6 6.29,1.36 5.99,5.04 -0.17,2.08 -4.95,9.64 -6.27,11.96 0,0 -16.14,28.000003 -16.14,28.000003 0,0 -49,85.000008 -49,85.000008 0,0 -29.58,52 -29.58,52 0,0 112,-112.00001 112,-112.00001 0,0 26,-25.999998 26,-25.999998 2.4,-2.38 7.04,-8.22 10.63,-4.63 3.59,3.59 -2.25,8.23 -4.63,10.63 0,0 -26,25.999998 -26,25.999998 0,0 -112,112.00001 -112,112.00001 0,0 55,-31.58 55,-31.58 0,0 65,-37.43 65,-37.43 0,0 37,-21.41 37,-21.41 0,0 22,-11.58 22,-11.58 3.99,7.1 1.11,7.52 -7,12.15 0,0 -31,17.86 -31,17.86 0,0 -91,52.57 -91,52.57 0,0 -47,27.42 -47,27.42 0,0 34,-9.12 34,-9.12 0,0 105,-28.03 105,-28.03 0,0 35,-9.27 35,-9.27 0,0 27,-6.58 27,-6.58 0,0 1,7 1,7 0,0 -37,9.85 -37,9.85 0,0 -71,19 -71,19 0,0 -57,15.27 -57,15.27 0,0 -36,9.88 -36,9.88 0,0 208,0 208,0 0,0 0,6 0,6 0,0 -475.99999894,0 -475.99999894,0 0,0 0,-6 0,-6 0,0 141.99998894,0 141.99998894,0 0,0 43,0 43,0 0,0 23.00001,-1 23.00001,-1 0,0 -26.00001,-6.29 -26.00001,-6.29 0,0 -32,-8.56 -32,-8.56 0,0 -90.999989,-24.3 -90.999989,-24.3 0,0 -51.9999999,-13.85 -51.9999999,-13.85 0.39,-2.29 0.65,-5.37 3.2799999,-6.23 2.12,-0.7 10.22,1.71 12.72,2.38 0,0 32,8.7 32,8.7 0,0 104.999989,28.03 104.999989,28.03 0,0 31,8.27 31,8.27 5.54001,1.5 12.33001,4.18 18.00001,3.85 0,0 -29.00001,-16.15 -29.00001,-16.15 0,0 -51,-29.43 -51,-29.43 0,0 -70.999989,-41 -70.999989,-41 0,0 -28,-16.42 -28,-16.42 0,0 3,-6 3,-6 0,0 21,10.99 21,10.99 0,0 33.999995,19.59 33.999995,19.59 0,0 75.999994,43.84 75.999994,43.84 0,0 48.00001,27.58 48.00001,27.58 0,0 -112.00001,-112.00001 -112.00001,-112.00001 0,0 -25.999994,-25.999998 -25.999994,-25.999998 -2.38,-2.4 -8.219995,-7.04 -4.63,-10.63 3.59,-3.59 8.23,2.25 10.63,4.63 0,0 26.999994,26.999998 26.999994,26.999998 0,0 112.00001,112.00001 112.00001,112.00001 0,0 -23.58,-41 -23.58,-41 0,0 -47.84001,-83.000008 -47.84001,-83.000008 0,0 -19.59,-34.000003 -19.59,-34.000003 0,0 -11.99,-22 -11.99,-22 0,0 7,-3 7,-3 0,0 39.58,69.000003 39.58,69.000003 0,0 63.42001,110.000008 63.42001,110.000008 0,0 -13.85,-53 -13.85,-53 0,0 -28.03001,-105.000011 -28.03001,-105.000011 0,0 -11.12,-42.9999999 -11.12,-42.9999999 0,0 7,-1.0000001 7,-1.0000001 0,0 12.15001,45 12.15001,45 0,0 23.97,89.000011 23.97,89.000011 0,0 17.88,66 17.88,66 0,0 0,-207.000011 0,-207.000011 0,0 8,0 8,0 z m 193,207.000011 c 0,0 -1,9 -1,9 0,0 4.91,-2 4.91,-2 0.82,2.68 1.49,5.18 0,7.77 -1.66,2.59 -5.05,3.6 -6.57,0.9 -2.09,-3.74 2.08,-8.2 -1.34,-14.67 0,0 4,-1 4,-1 z m 21,0 c 0,0 -1,11 -1,11 0,0 3,-4 3,-4 0,0 4,0 4,0 0,0 -5,4 -5,4 0,0 4,7 4,7 0,0 -7,-5 -7,-5 0,0 0,5 0,5 0,0 -2,0 -2,0 0.5,-6.13 3.03,-11.45 0,-17 0,0 4,-1 4,-1 z m -230,2 c 0,0 1,1 1,1 0,0 0,-1 0,-1 0,0 -1,0 -1,0 z m 23,0 c 0,0 1,1 1,1 0,0 0,-1 0,-1 0,0 -1,0 -1,0 z m 150,2 c 0,0 -4,12 -4,12 0,0 7,-1 7,-1 -2.52,3.76 -6.06,3.56 -10,2 2.61,-3.49 4.02,-9.96 2,-14 0,0 5,1 5,1 z m -142,1 c 0,0 1,1 1,1 0,0 0,-1 0,-1 0,0 -1,0 -1,0 z m -38,1 c 0,0 1,1 1,1 0,0 0,-1 0,-1 0,0 -1,0 -1,0 z m 37,0 c 0,0 1,1 1,1 0,0 0,-1 0,-1 0,0 -1,0 -1,0 z m 152.89,10.92 c -4.32,2.17 -7.24,-4.11 -1.76,-8.84 7.09,-1.52 5.74,6.84 1.76,8.84 z m 0.11,0.08 c 1.87,-4.13 1.96,-4.58 1,-9 -5.59,1.86 -6.26,6.02 -1,9 z m 9,-8 c 2.97,-1.61 2.94,-1.3 6,0 0,0 5,-1 5,-1 -0.65,3.61 -1.96,6.32 1,9 0,0 -4,1 -4,1 0,0 1,-10 1,-10 0,0 -7,10 -7,10 0,0 1,-10 1,-10 0,0 -7,10 -7,10 0,0 1,-11 1,-11 0,0 3,2 3,2 z m 28.89,7.92 c -4.32,2.17 -7.24,-4.11 -1.76,-8.84 7.09,-1.52 5.74,6.84 1.76,8.84 z m 0.11,0.08 c 1.87,-4.13 1.96,-4.58 1,-9 -5.59,1.86 -6.26,6.02 -1,9 z m -11,0 c 2.29,-3.53 2.71,-3.8 2,-8 -4.4,2.27 -5.68,4.09 -2,8 z m -224,-6 c 0,0 1,1 1,1 0,0 0,-1 0,-1 0,0 -1,0 -1,0 z m 51,0 c 0,0 1,1 1,1 0,0 0,-1 0,-1 0,0 -1,0 -1,0 z m -53,8 c 0,0 1,1 1,1 0,0 0,-1 0,-1 0,0 -1,0 -1,0 z m 55,0 c 0,0 1,1 1,1 0,0 0,-1 0,-1 0,0 -1,0 -1,0 z m -147.27001,33.82 c 1.31,1.38 0.14,7.19 0,9.18 0,0 -3.73,24 -3.73,24 0,0 4,1 4,1 0,0 -7,2 -7,2 0,0 4,-35 4,-35 0,0 -4,-1.18 -4,-1.18 1.84,-0.56 5.31,-2.32 6.73,0 z m 12,0 c 1.31,1.38 0.14,7.19 0,9.18 0,0 -3.73,24 -3.73,24 0,0 4,1 4,1 0,0 -7,2 -7,2 0,0 4,-35 4,-35 0,0 -4,-1.18 -4,-1.18 1.84,-0.56 5.31,-2.32 6.73,0 z m -22.73,2.18 c 0.48,3.8 0.34,4.1 -3,6 -0.48,-3.8 -0.34,-4.1 3,-6 z m 96.00001,0 c 0.48,3.8 0.34,4.1 -3,6 -0.48,-3.8 -0.34,-4.1 3,-6 z m -124.000004,3 c 0,0 -1.94,3.11 -1.94,3.11 0,0 3.94,19.89 3.94,19.89 0,0 9.1,-19.91 9.1,-19.91 0,0 -1.1,-4.09 -1.1,-4.09 0,0 9,1 9,1 -6.29,3.32 -9.74,14.56 -12.69,21 -2.14,4.66 -2.09,7.28 -7.31,9 -2.4,-9.06 -3.68,-23.85 -8.999995,-31 0,0 9.999995,1 9.999995,1 z m 99.999994,0 c -4.48,4.31 -4.21,7.08 -5,13 3.49,-3.49 10.9,-8.71 10,-14 0,0 9.00001,1 9.00001,1 0,0 -16.00001,14 -16.00001,14 6.84,6.32 4.98,9.25 14,14 -8.5,3.92 -9.01,0.27 -17,-13 -1.14,6.34 -2.66,9.36 1,15 0,0 -10,-1 -10,-1 0,0 3.42,-3.22 3.42,-3.22 0,0 3.19,-21.74 3.19,-21.74 0,0 -2.61,-5.04 -2.61,-5.04 0,0 10,1 10,1 z m 142.94001,0.01 c 6.08,3.33 5.64,11.52 -3.94,15.99 4.95,6.9 3.27,7.93 11,12 -1.78,0.82 -3.73,1.94 -5.79,1.6 -3.82,-0.63 -7.25,-10.22 -8.21,-13.6 0,0 -3,0 -3,0 -1.09,5.98 -2.69,8.75 1,14 0,0 -10,-1 -10,-1 0,0 2.98,-2.41 2.98,-2.41 0,0 5.02,-25.59 5.02,-25.59 0,0 -5,-0.99 -5,-0.99 3.89,-0.96 12.37,-1.94 15.94,0 z m -3.05,12.82 c 4.68,-2.63 6.9,-10.3 -4.89,-12.83 0,0 -2,14 -2,14 2.34,-0.06 4.78,0.01 6.89,-1.17 z m 96.11,-10.83 c 0,0 -1,6 -1,6 0,0 7,0 7,0 -2.87,2.64 -3.17,2.38 -7,2 -1.26,6.93 -2.71,10.96 -1,18 0,0 6,-2.01 6,-2.01 -2.92,4.77 -9.9,6.91 -10.84,0 0,0 1.84,-15.99 1.84,-15.99 0,0 -3,-1 -3,-1 0,0 4,-1 4,-1 0.63,-3.76 0.65,-4.11 4,-6 z m -310.00001,5 c 0,0 -2,21 -2,21 0,0 4,-1 4,-1 -2.22,3.41 -6.6,5.09 -7.649994,0.85 0,0 1.649994,-17.85 1.649994,-17.85 0,0 -2.999994,-1 -2.999994,-1 0,0 6.999994,-2 6.999994,-2 z m 34.93,23.16 c -3.26,0.97 -5.22,-1.38 -6.12,-4.2 -1.49,-4.64 0.2,-10.34 3.41,-13.86 5.56,-6.07 8.9,-4.33 15.78,-5.1 -2.56,9.83 -3,10.64 -3,21 0,0 4,1 4,1 0,0 -6,2 -6,2 0,0 -2,-6 -2,-6 -1.59,1.73 -3.77,4.46 -6.07,5.16 z m 61.07001,-23.16 c 0,0 -2,21 -2,21 0,0 4,-1 4,-1 -2.22,3.41 -6.6,5.09 -7.65,0.85 0,0 1.65,-17.85 1.65,-17.85 0,0 -3,-1 -3,-1 0,0 7,-2 7,-2 z m 11,0 c 0,0 1,6 1,6 3.08,-6.28 8.92,-7.93 8,-1 0,0 -4,-2 -4,-2 -1.78,2.92 -3.75,5.75 -4.89,9 -1.83,5.2 -0.17,8.97 -6.11,11 1.21,-6.65 3.32,-14.32 2,-21 0,0 -3,0 -3,0 0,0 7,-2 7,-2 z m 17.93,23.16 c -3.26,0.97 -5.22,-1.38 -6.12,-4.2 -1.49,-4.64 0.2,-10.34 3.41,-13.86 5.56,-6.07 8.9,-4.33 15.78,-5.1 -2.56,9.83 -3,10.64 -3,21 0,0 4,1 4,1 0,0 -6,2 -6,2 0,0 -2,-6 -2,-6 -1.59,1.73 -3.77,4.46 -6.07,5.16 z m 23.07,-23.16 c 0,0 1,5 1,5 0,0 4,-3 4,-3 12.73,-7.39 7.65,12.6 6,18 0,0 4,2 4,2 0,0 -7,2 -7,2 0,0 2,-21 2,-21 -4.88,1.43 -7.94,4.13 -9.74,9 -2.18,5.91 0.57,8.27 -5.26,12 0,0 -1,-1 -1,-1 0,0 3,-20 3,-20 0,0 -4,-1 -4,-1 0,0 7,-2 7,-2 z m 24.93,23.16 c -3.26,0.97 -5.22,-1.38 -6.12,-4.2 -1.49,-4.64 0.2,-10.34 3.41,-13.86 5.56,-6.07 8.9,-4.33 15.78,-5.1 -2.56,9.83 -3,10.64 -3,21 0,0 4,1 4,1 0,0 -6,2 -6,2 0,0 -2,-6 -2,-6 -1.59,1.73 -3.77,4.46 -6.07,5.16 z m 58.11,0.31 c -7.1,-1.32 -6.91,-15.1 1,-20.96 6.77,-5.01 11.65,0.11 8.78,5.31 -2.09,3.79 -7.94,5.82 -11.82,7.18 5.04,9.04 6.29,3.09 13,4 -2.92,1.9 -7.3,5.15 -10.96,4.47 z m 23.62,-7.45 c -1.11,-3.98 -8.68,-5.47 -7,-10.98 1.69,-5.55 8.74,-6.28 13.34,-2.04 -4.55,0.73 -7.66,-0.99 -8.97,1.33 -1.89,3.34 4.81,5.36 6.36,9.71 2.13,6.01 -3.81,12.42 -14.39,7.96 0,0 3,-5 3,-5 5.83,5.97 8.34,1.44 7.66,-0.98 z m 13.38,7.51 c -7.3,-1.64 -9.34,-16.33 2.96,-22.79 16.67,-3.45 9.64,25.62 -2.96,22.79 z m 21.96,-23.53 c 0,0 1,6 1,6 3.08,-6.28 8.92,-7.93 8,-1 0,0 -4,-2 -4,-2 -1.78,2.92 -3.75,5.75 -4.89,9 -1.83,5.2 -0.17,8.97 -6.11,11 1.21,-6.65 3.32,-14.32 2,-21 0,0 -3,0 -3,0 0,0 7,-2 7,-2 z m -257.89001,14.98 c 0.21,2.09 1.06,5.37 3.91,4.57 3.8,-1.07 11.67,-16.11 2.05,-16.06 -4.96,2.12 -6.49,6.25 -5.96,11.49 z m 90.00001,0 c 0.21,2.09 1.06,5.37 3.91,4.57 3.8,-1.07 11.67,-16.11 2.05,-16.06 -4.96,2.12 -6.49,6.25 -5.96,11.49 z m 48,0 c 0.21,2.09 1.06,5.37 3.91,4.57 3.8,-1.07 11.67,-16.11 2.05,-16.06 -4.96,2.12 -6.49,6.25 -5.96,11.49 z m 58.89,-1.98 c 6.13,-2.2 8.44,-3.12 9,-10 -6.46,1.06 -7.58,4.04 -9,10 z m 37.11,1 c 0.3,3.08 2,7.17 5.86,6.26 5.72,-1.35 8.48,-16.9 -0.94,-16.55 -4.37,2.36 -5.4,5.38 -4.92,10.29 z m -118.11,-9 c 0,0 1,1 1,1 0,0 0,-1 0,-1 0,0 -1,0 -1,0 z m -111.00001,57.98 c 1.61,0.19 3.2,0.15 4.26,-1.32 2.89,-4.04 -5.64,-5.85 -5.52,-10.63 0.1,-3.86 6.53,-7.38 10.26,-2.03 -1.67,0.1 -6.03,-0.4 -6.8,1.37 -1.46,3.35 6.85,5.01 5.14,10.59 -1.26,4.16 -8.89,7.81 -11.34,1.04 0,0 4,0.98 4,0.98 z m 121.00001,-14.98 c 0,0 -1,4 -1,4 0,0 4,0 4,0 0,0 -4,2 -4,2 0,0 -1,11 -1,11 0,0 4,0 4,0 -9.76,4.24 -6.81,-5.53 -5,-11 0,0 -3,-1 -3,-1 0,0 4,-5 4,-5 0,0 2,0 2,0 z m 84,0 c 0,0 -1,4 -1,4 0,0 4,0 4,0 0,0 -4,2 -4,2 0,0 -1,11 -1,11 0,0 4,0 4,0 -9.76,4.24 -6.81,-5.53 -5,-11 0,0 -3,-1 -3,-1 0,0 4,-5 4,-5 0,0 2,0 2,0 z m -190.00001,6 c 1.41,-0.99 2.91,-2.39 4.77,-2.39 2.39,0 2.95,2.52 3.11,4.41 0.52,6.19 -3.14,13.74 -9.88,7.98 0,0 -1,10 -1,10 0,0 -3,0 -3,0 0.54,-6.71 4.21,-15.93 1,-22 3.1,-0.55 3.69,-1.05 5,2 z m 13.65,0.34 c 2.98,-3.44 6.26,-3.03 10.35,-3.34 -1.7,5.89 -3.15,9.35 0,15 0,0 -4,1 -4,1 0,0 -1,-4 -1,-4 -7.93,8.66 -9.99,-3.29 -5.35,-8.66 z m 56.35001,-1.34 c 2.53,-1.66 2.47,-1.66 5,0 0,0 -4,0 -4,0 -1.85,4.39 -2.89,10.42 -7,13 1.31,-5.21 2.68,-9.09 0,-14 0,0 6,1 6,1 z m 9.23,13.3 c -4.52,-1.45 -3.76,-10.16 0.98,-13.56 3.82,-2.74 7.48,-0.49 5.71,3.18 -1.46,3.02 -4.96,4.2 -7.92,5.08 4.28,4.43 3.95,2.16 9,3 -2.11,1.06 -5.35,3.07 -7.77,2.3 z m 11.63,-2.63 c 8.07,1.08 -0.2,-5.67 0,-8.6 -0.02,-3.21 3.73,-5.37 8.14,-1.07 0,0 -1,1 -1,1 0,0 -6,-1 -6,-1 1.55,2.02 5.38,5.58 5.37,8 0,3.58 -6.9,7.84 -9.37,1 0,0 2.86,0.67 2.86,0.67 z m 21.79,-9.33 c 2.98,-3.44 6.26,-3.03 10.35,-3.34 -1.7,5.89 -3.15,9.35 0,15 0,0 -4,1 -4,1 0,0 -1,-4 -1,-4 -7.93,8.66 -9.99,-3.29 -5.35,-8.66 z m 17.35,-3.34 c 0,0 -1,14 -1,14 5.22,-4.12 5.32,-5.9 7,-12 0,0 -3,-1 -3,-1 0,0 5,-1 5,-1 -0.14,6.2 -2.14,9.37 1,15 0,0 -4,1 -4,1 0,0 -1,-4 -1,-4 0,0 -7,4 -7,4 0,0 -2,-15 -2,-15 0,0 5,-1 5,-1 z m 17,2 c 2.53,-1.66 2.47,-1.66 5,0 0,0 -4,0 -4,0 -1.85,4.39 -2.89,10.42 -7,13 1.31,-5.21 2.68,-9.09 0,-14 0,0 6,1 6,1 z m 8.65,1.34 c 2.98,-3.44 6.26,-3.03 10.35,-3.34 -1.7,5.89 -3.15,9.35 0,15 0,0 -4,1 -4,1 0,0 -1,-4 -1,-4 -7.93,8.66 -9.99,-3.29 -5.35,-8.66 z m 17.35,-0.34 c 0,0 8,-3 8,-3 0,5.03 -1.39,10.48 1,15 0,0 -4,1 -4,1 0,0 -1,-1 -1,-1 0,0 2,-13 2,-13 -10.05,4.88 -4.18,9.71 -11,14 1.38,-5.49 2.86,-9.83 0,-15 3.1,-0.55 3.69,-1.05 5,2 z m -171.72001,1.29 c -7.44,7.39 4.78,14.11 4.59,2.71 -0.03,-1.73 -0.47,-3.33 -0.87,-5 -1.58,0.77 -2.38,0.96 -3.72,2.29 z m 14.72,9.71 c 0,0 5,-11 5,-11 -7.86,-1.62 -9.94,5.97 -5,11 z m 63.00001,-6 c 3.93,-1.46 4.29,-1.87 5,-6 -3.96,1.31 -4.12,2 -5,6 z m 36,6 c 0,0 5,-11 5,-11 -7.86,-1.62 -9.94,5.97 -5,11 z m 43,0 c 0,0 5,-11 5,-11 -7.86,-1.62 -9.94,5.97 -5,11 z m -159.00001,-11 c 0,0 1,1 1,1 0,0 0,-1 0,-1 0,0 -1,0 -1,0 z m 69.00001,0 c 0,0 1,1 1,1 0,0 0,-1 0,-1 0,0 -1,0 -1,0 z m 77,0 c 0,0 1,1 1,1 0,0 0,-1 0,-1 0,0 -1,0 -1,0 z m -97,3 c 0,0 0,2 0,2 0,0 -8,0 -8,0 0,0 0,-2 0,-2 0,0 8,0 8,0 z m 30,2 c 0,0 1,1 1,1 0,0 0,-1 0,-1 0,0 -1,0 -1,0 z m 240,31 c 0,0 0,6 0,6 0,0 -473.9999989,0 -473.9999989,0 0,0 0,-6 0,-6 0,0 473.9999989,0 473.9999989,0 z m -74,30 c 0,0 0,6 0,6 0,0 -325.000004,0 -325.000004,0 0,0 0,-6 0,-6 0,0 325.000004,0 325.000004,0 z m -73,29 c 0,0 0,5 0,5 0,0 -180.00001,0 -180.00001,0 0,0 0,-5 0,-5 0,0 180.00001,0 180.00001,0 z m -73,25 c 0,0 0,6 0,6 0,0 -34,0 -34,0 0,0 0,-6 0,-6 0,0 34,0 34,0 z"
     inkscape:connector-curvature="0"
     style="fill:#ffc125;fill-opacity:1;stroke:#000000;stroke-width:1" />
</svg>
