<?xml version="1.0" encoding="UTF-8" standalone="no"?>
<!-- Created with Inkscape (http://www.inkscape.org/) -->
<svg xmlns:rdf="http://www.w3.org/1999/02/22-rdf-syntax-ns#" xmlns="http://www.w3.org/2000/svg" height="100%" width="100%" version="1.1" xmlns:cc="http://creativecommons.org/ns#" xmlns:dc="http://purl.org/dc/elements/1.1/" viewBox="0 0 749.58001 770.2256">
 <metadata>
  <rdf:RDF>
   <cc:Work rdf:about="">
    <dc:format>image/svg+xml</dc:format>
    <dc:type rdf:resource="http://purl.org/dc/dcmitype/StillImage"/>
    <dc:title/>
   </cc:Work>
  </rdf:RDF>
 </metadata>
 <g transform="translate(8.79181,-12.331144)">
  <path stroke-linejoin="miter" d="M768.57,459.38c0,206.71-167.57,374.29-374.29,374.29-206.71,0-374.28-167.58-374.28-374.29s167.57-374.29,374.29-374.29c206.71,0,374.29,167.57,374.29,374.29z" stroke-dashoffset="0" transform="translate(-28.29181,-51.613262)" stroke="#000" stroke-linecap="butt" stroke-miterlimit="4" stroke-dasharray="none" stroke-width="1" fill="#FFF"/>
  <path d="M308.57,263.79c279.33-201.74-363.42,123.47-35.42,17.92,328-105.54-383.78,5.12-39.22,6.1s-366.59-113.72-39.19-6.32c327.39,107.4-313.5-221.44-35.32-18.12s-229.73-307.48-27.99-28.15-123.47-363.42-17.92-35.42-5.1224-383.79-6.0987-39.225c-0.97631,344.56,113.72-366.58,6.3209-39.19s221.44-313.51,18.12-35.324c-203.32,278.18,307.48-229.73,28.15-27.99-279.33,201.73,363.42-123.47,35.42-17.921-328,105.54,383.79-5.122,39.23-6.099-344.57-0.976,366.58,113.72,39.18,6.321-327.39-107.4,313.5,221.44,35.32,18.122s229.73,307.48,27.99,28.149,123.47,363.42,17.92,35.422,5.1224,383.79,6.0987,39.225c0.97631-344.56-113.72,366.58-6.3209,39.19,107.4-327.4-221.44,313.5-18.122,35.318s-307.48,229.73-28.149,27.99z" transform="translate(-38.395998,199.41547)" stroke="#000" stroke-miterlimit="4" stroke-dasharray="none" stroke-width="1" fill="#947874"/>
  <path d="m308.57,263.79c305.32-220.51-422.75,88.244-51.985,22.045s-419.17-103.92-56.402-2.6932-332.57-275.5-49.648-26.898-180.1-392.51-33.06-45.776c147.04,346.74,8.0384-431.79-9.9249-55.587s194.59-385.54,15.176-54.388,342.6-262.93,37.271-42.417c-305.32,220.51,422.75-88.244,51.985-22.045s419.17,103.92,56.402,2.6932,332.57,275.5,49.648,26.898,180.1,392.51,33.06,45.776c-147.04-346.74-8.0384,431.79,9.9249,55.587s-194.59,385.54-15.176,54.388-342.6,262.93-37.271,42.417z" transform="matrix(0.48207312,0,0,0.48207312,177.90122,480.75721)" stroke="#000" stroke-miterlimit="4" stroke-dasharray="none" stroke-width="1" fill="#a090b0"/>
  <path stroke-linejoin="miter" d="M768.57,459.38c96.94,147.43-167.57,374.29-374.28,374.29-206.72,0-374.29-167.58-374.29-374.29v-0.00002s240.05,148.57,374.29,148.57c134.23,0,300.54-260.73,374.29-148.57z" stroke-dashoffset="0" transform="matrix(0,-1,1,0,-93.38556,802.0519)" stroke="#000" stroke-linecap="butt" stroke-miterlimit="4" stroke-dasharray="none" stroke-width="1" fill="#b4c8b4"/>
  <path d="m308.57,263.79c325.01-234.73-446.65,92.512-51.985,22.045,394.67-70.467-442.56-110.44-56.402-2.6932s-350.81-291.53-49.648-26.898-189.58-414.87-33.06-45.776,9.1965-456.04-9.9249-55.587c-19.119,400.45,206.16-406.88,15.18-54.39-190.98,352.5,362.28-277.14,37.27-42.414-325.01,234.72,446.65-92.512,51.98-22.045-394.66,70.469,442.56,110.45,56.41,2.693-386.16-107.75,350.81,291.53,49.64,26.899-301.16-264.62,189.59,414.87,33.06,45.777-156.52-369.09-9.1965,456.04,9.9249,55.587s-206.15,406.89-15.176,54.388c190.98-352.5-362.28,277.15-37.271,42.417z" transform="matrix(0.32291514,0,0,0.32291514,314.70453,280.50301)" stroke="#000" stroke-miterlimit="4" stroke-dasharray="none" stroke-width="1" fill="#947874"/>
  <g style="letter-spacing:0px;word-spacing:0px;" font-family="Sans" transform="matrix(1.97462,0,0,1.97462,1234.6454,-25.478537)" font-style="normal" font-size="40px" font-weight="normal" line-height="125%" fill="#000">
   <path d="m-441.32,250.85,1.5039-4.1016,10.527,5.7422-6.8086-22.887-10.227,27.617-3.7188-2.1055,14.246-38.309,13.371,44.078-18.895-10.035"/>
   <path d="m-399.1,230.94-7.0274,10.145,9.2969,15.34-4.3477,1.9141-10.582-17.637,6.1524-8.8867-7.7383-5.8516,0,31.391-4.5391,0.98438,0-41.48,18.785,14.082"/>
   <path d="m-388.16,222.33,0,35.027-4.5117,0.98438,0-35.246-8.1484,1.2852,0-4.5117,20.59-3.3633,0,4.5391-7.9297,1.2852"/>
   <path d="m-370.47,257.35-4.5391,0.98438,0-38.719,4.5391-0.92969,0,38.664"/>
   <path d="m-358.99,257.35-4.5391,0.98438,0-38.773,4.5391-0.92969,0,38.719m17.664-0.76562-4.3476,1.2852-12.715-20.809,14.109-19.195,2.9531,3.2812-11.785,16.133,11.785,19.305"/>
   <path d="m-329.76,250.85,1.5039-4.1016,10.527,5.7422-6.8086-22.887-10.227,27.617-3.7188-2.1055,14.246-38.309,13.371,44.078-18.895-10.035"/>
   <path d="m-287.54,230.94-7.0274,10.145,9.2969,15.34-4.3477,1.9141-10.582-17.637,6.1524-8.8867-7.7383-5.8516,0,31.391-4.5391,0.98438,0-41.48,18.785,14.082"/>
   <path d="m-276.6,222.33,0,35.027-4.5117,0.98438,0-35.246-8.1484,1.2852,0-4.5117,20.59-3.3633,0,4.5391-7.9297,1.2852"/>
  </g>
 </g>
</svg>
